<svg xmlns="http://www.w3.org/2000/svg" version="1.1" xmlns:xlink="http://www.w3.org/1999/xlink" xmlns:svgjs="http://svgjs.dev/svgjs" width="1500" height="257" viewBox="0 0 1500 257"><g transform="matrix(1,0,0,1,-0.9090909090909918,-1.2295373889312629)"><svg viewBox="0 0 396 68" data-background-color="#ffffff" preserveAspectRatio="xMidYMid meet" height="257" width="1500" xmlns="http://www.w3.org/2000/svg" xmlns:xlink="http://www.w3.org/1999/xlink"><g id="tight-bounds" transform="matrix(1,0,0,1,0.2400000000000091,0.3253250678884285)"><svg viewBox="0 0 395.52 67.34934986422316" height="67.34934986422316" width="395.52"><g><svg viewBox="0 0 395.52 67.34934986422316" height="67.34934986422316" width="395.52"><g><svg viewBox="0 0 395.52 67.34934986422316" height="67.34934986422316" width="395.52"><g id="textblocktransform"><svg viewBox="0 0 395.52 67.34934986422316" height="67.34934986422316" width="395.52" id="textblock"><g><rect width="106.79039999999999" height="4.1610996243205065" y="60.11140455866741" fill="#261f20" data-fill-palette-color="tertiary"></rect><rect width="106.79039999999999" height="4.1610996243205065" y="60.11140455866741" x="288.7296" fill="#261f20" data-fill-palette-color="tertiary"></rect></g><g><svg viewBox="0 0 395.52 46.141627923713564" height="46.141627923713564" width="395.52"><g transform="matrix(1,0,0,1,0,0)"><svg width="395.52" viewBox="-0.22 -38.23 339.21000000000004 39.57" height="46.141627923713564" data-palette-color="#000000"><path d="M28.96-34.81L28.96-34.81Q29.96-34.81 29.96-33.76L29.96-33.76Q29.96-33.23 29.63-32.53 29.3-31.84 29.1-31.4L29.1-31.4 15.84 1.34-0.22-34.55 13.11-34.55 20.87-16.28 26.32-29.91Q27.2-32.1 27.47-33.08 27.73-34.06 28.05-34.44 28.37-34.81 28.96-34.81ZM51.24-10.13L51.24-10.13 53.42-10.03Q58.15-10.03 61.23-13.16L61.23-13.16Q64.35-16.31 64.5-21.31L64.5-21.31Q64.77-29.03 57.08-31.74L57.08-31.74Q54.2-32.76 49.58-32.76L49.58-32.76 47.53-32.76 47.53 0 35.08 0 35.08-34.55 44.43-34.55Q52-34.55 53.56-34.33 55.12-34.11 56.82-33.76 58.52-33.42 60.48-32.28 62.45-31.13 63.82-29.54L63.82-29.54Q66.57-26.32 66.48-21.97L66.48-21.97Q66.33-16.43 63.23-12.74L63.23-12.74Q60.08-9.03 54.54-8.15L54.54-8.15Q52.93-7.93 52-7.93L52-7.93Q49.8-7.93 49.8-9.13L49.8-9.13Q49.8-9.57 50.19-9.85 50.58-10.13 51.24-10.13ZM103.53-22.17L103.53-22.17 102.53-22.19Q101.99-22.24 101.16-22.24L101.16-22.24 95.7-22.24 95.7 0 83.24 0 83.24-34.55 102.63-34.55 105.05-34.62 105.49-34.62Q107.32-34.62 107.32-33.54L107.32-33.54Q107.32-33.13 106.99-32.78 106.66-32.42 106.27-32.42L106.27-32.42Q105.63-32.42 105.05-32.54L105.05-32.54Q103.92-32.79 102.12-32.79L102.12-32.79 95.7-32.79 95.7-24 100.6-24Q100.6-24 103.63-24.12L103.63-24.12Q104.95-24.12 104.95-23.14 104.95-22.17 103.53-22.17ZM111.42 0L111.42-26.07 121.91-26.07 121.91-18.41Q123.6-22.58 125.54-24.55 127.48-26.51 129.43-26.51L129.43-26.51Q130.53-26.51 131.18-25.94 131.83-25.37 131.83-24.66 131.83-23.95 131.63-23.54 131.44-23.12 131.12-22.83L131.12-22.83Q130.46-22.22 129.87-22.22L129.87-22.22Q128.95-22.22 128.51-22.41L128.51-22.41Q127.75-22.75 127.16-22.75 126.58-22.75 125.67-21.81 124.77-20.87 123.94-19.21L123.94-19.21Q121.91-15.16 121.91-10.42L121.91-10.42 121.91 0 111.42 0ZM151.31 0L151.31-1.61Q148.18 0.46 144.37 0.46L144.37 0.46Q139.32 0.46 136.27-2.08L136.27-2.08Q133.09-4.69 133.09-9.33L133.09-9.33Q133.09-13.43 136.24-16.06L136.24-16.06Q139.47-18.73 144.71-18.73L144.71-18.73Q148.23-18.73 151.31-17.38L151.31-17.38 151.31-24.1Q149.08-24.73 147.39-24.73 145.69-24.73 144.52-24.58 143.35-24.44 142.3-24.15L142.3-24.15Q140.03-23.51 138.85-22.44L138.85-22.44Q138.17-21.8 137.61-21.8 137.05-21.8 136.76-22.08 136.46-22.36 136.46-22.71 136.46-23.05 136.58-23.33 136.71-23.61 137.05-23.9L137.05-23.9Q137.78-24.54 139.49-25.17L139.49-25.17Q143.03-26.51 146.59-26.51L146.59-26.51Q157.43-26.51 160.44-21.34L160.44-21.34Q161.76-19.04 161.76-15.31L161.76-15.31 161.76 0 151.31 0ZM151.31-3.71L151.31-15.48Q148.23-16.97 145.18-16.97L145.18-16.97Q144.69-16.97 144.25-16.89L144.25-16.89 144.25-1.37Q144.37-1.34 144.52-1.34 144.67-1.34 144.81-1.34L144.81-1.34Q148.16-1.34 151.31-3.71L151.31-3.71ZM187.46 0L187.46-23.41Q186.85-23.8 186.14-23.8 185.43-23.8 184.68-23.47 183.92-23.14 183.09-22.56L183.09-22.56Q181.36-21.31 179.89-19.24L179.89-19.24 179.89 0 169.39 0 169.39-26.07 179.89-26.07 179.89-21.9Q184.07-26.51 189.34-26.51L189.34-26.51Q197.96-26.51 197.96-18.16L197.96-18.16 197.96 0 187.46 0ZM215.71-24.54L215.71-1.56Q216.85-1.34 218.01-1.34 219.17-1.34 220.26-1.53 221.34-1.71 222.32-2.05L222.32-2.05Q224.4-2.78 225.67-3.91L225.67-3.91Q226.57-4.69 226.98-4.69L226.98-4.69Q227.91-4.69 227.91-3.86 227.91-3.03 226.4-1.88L226.4-1.88Q222.88 0.46 217.95 0.46L217.95 0.46Q211.53 0.46 207.58-3.39L207.58-3.39Q203.69-7.2 203.69-13.28L203.69-13.28Q203.69-19.04 207.82-22.8L207.82-22.8Q211.92-26.51 218.12-26.51L218.12-26.51Q221.66-26.51 224.93-25.05L224.93-25.05Q227.42-23.97 227.42-22.83L227.42-22.83Q227.42-22.34 227.14-22.08 226.86-21.83 226.52-21.83L226.52-21.83Q226.01-21.83 225.2-22.39L225.2-22.39Q223.62-23.9 220.49-24.51L220.49-24.51Q219.37-24.73 218.02-24.73 216.68-24.73 215.71-24.54L215.71-24.54ZM253.42-26.51L253.42-26.51Q262.02-26.51 262.02-18.16L262.02-18.16 262.02 0 251.52 0 251.52-23.75Q251.08-24.05 250.36-24.05 249.64-24.05 248.86-23.71 248.08-23.36 247.22-22.75L247.22-22.75Q245.39-21.41 243.97-19.38L243.97-19.38 243.97 0 233.48 0 233.48-34.55 243.97-34.55 243.97-21.95Q248.15-26.51 253.42-26.51ZM275.12-30.35Q272.61-30.35 271.19-31.47 269.78-32.59 269.78-34.42L269.78-34.42Q269.78-35.96 271.34-37.06L271.34-37.06Q273-38.23 274.86-38.23 276.71-38.23 277.72-37.87 278.74-37.5 279.45-36.91L279.45-36.91Q280.86-35.72 280.86-34.13L280.86-34.13Q280.86-32.54 279.25-31.45L279.25-31.45Q277.64-30.35 275.12-30.35ZM270 0L270-26.07 280.5-26.07 280.5 0 270 0ZM286.57-3.27L286.57-3.27Q286.57-3.64 286.83-3.94 287.08-4.25 287.5-4.25 287.91-4.25 288.18-4L288.18-4Q288.18-4 288.79-3.44L288.79-3.44Q291.33-1.22 295.9-1.22L295.9-1.22Q298.97-1.22 299.85-2.49L299.85-2.49Q300.1-2.83 300.1-3.19 300.1-3.54 299.96-3.87 299.83-4.2 299.39-4.68 298.95-5.15 298.14-5.81L298.14-5.81 296-7.54Q290.67-11.69 288.7-14.28L288.7-14.28Q286.89-16.65 286.89-19.12L286.89-19.12Q286.89-22.22 289.75-24.32L289.75-24.32Q292.7-26.51 297.39-26.51L297.39-26.51Q300.68-26.51 302.59-25.76 304.49-25 305.27-24.38 306.05-23.75 306.05-23.24L306.05-23.24Q306.05-22.19 305.22-22.19L305.22-22.19Q304.83-22.19 304.5-22.47 304.17-22.75 303.2-23.43 302.22-24.1 300.61-24.49 299-24.88 297.61-24.88 296.22-24.88 295.64-24.44 295.07-24 295.07-23.57 295.07-23.14 295.24-22.77 295.41-22.39 295.87-21.88L295.87-21.88Q296.95-20.61 299.32-18.87 301.68-17.14 303.32-15.7 304.96-14.26 305.88-13.04L305.88-13.04Q307.57-10.84 307.57-8.59 307.57-6.35 306.74-4.75 305.91-3.15 304.37-2L304.37-2Q301.12 0.46 295.7 0.46L295.7 0.46Q291.36 0.46 288.45-1.2L288.45-1.2Q286.57-2.25 286.57-3.27ZM336.11-5.93L336.11-5.93Q337.06-5.93 337.06-5.05L337.06-5.05Q337.06-4.39 336.2-3.49L336.2-3.49Q332.35 0.46 325.63 0.46L325.63 0.46Q319.6 0.46 315.48-3.17L315.48-3.17Q311.2-6.96 311.2-12.74L311.2-12.74Q311.2-18.65 315.06-22.46L315.06-22.46Q319.14-26.51 325.9-26.51L325.9-26.51Q331.32-26.51 335.01-23.22L335.01-23.22Q338.99-19.68 338.99-13.92L338.99-13.92Q338.99-13.09 338.94-12.16L338.94-12.16 322.82-12.16 322.82-1.68Q324.48-1.34 326.56-1.34L326.56-1.34Q330.95-1.34 334.05-4.25L334.05-4.25Q334.69-4.88 334.96-5.25L334.96-5.25Q335.52-5.93 336.11-5.93ZM329.59-13.94L329.59-24.27Q328-24.73 326-24.73 324-24.73 322.82-24.46L322.82-24.46 322.82-13.94 329.59-13.94Z" opacity="1" transform="matrix(1,0,0,1,0,0)" fill="#000000" class="wordmark-text-0" data-fill-palette-color="primary" id="text-0"></path></svg></g></svg></g><g transform="matrix(1,0,0,1,106.79039999999999,57.03455887743217)"><svg viewBox="0 0 181.9392 10.314790986790987" height="10.314790986790987" width="181.9392"><g transform="matrix(1,0,0,1,8,0)"><svg width="165.9392" viewBox="2.4 -35.5 579.1 36" height="10.314790986790987" data-palette-color="#000000"><path d="M30.25-32.4L30.25-32.4Q30.85-32 30.95-31.38 31.05-30.75 30.65-30.15L30.65-30.15Q30.3-29.7 29.75-29.65 29.2-29.6 28.7-29.85L28.7-29.85Q26.8-31.1 24.63-31.8 22.45-32.5 19.95-32.5L19.95-32.5Q16.9-32.5 14.28-31.43 11.65-30.35 9.7-28.33 7.75-26.3 6.68-23.55 5.6-20.8 5.6-17.5L5.6-17.5Q5.6-14.1 6.7-11.33 7.8-8.55 9.78-6.55 11.75-4.55 14.35-3.5 16.95-2.45 19.95-2.45L19.95-2.45Q22.4-2.45 24.58-3.15 26.75-3.85 28.65-5.05L28.65-5.05Q29.15-5.35 29.73-5.28 30.3-5.2 30.65-4.7L30.65-4.7Q31.1-4.15 30.98-3.53 30.85-2.9 30.3-2.55L30.3-2.55Q29.05-1.75 27.35-1.05 25.65-0.35 23.75 0.08 21.85 0.5 19.95 0.5L19.95 0.5Q16.35 0.5 13.2-0.8 10.05-2.1 7.6-4.48 5.15-6.85 3.78-10.15 2.4-13.45 2.4-17.5L2.4-17.5Q2.4-21.4 3.75-24.68 5.1-27.95 7.5-30.35 9.9-32.75 13.1-34.1 16.3-35.45 19.95-35.45L19.95-35.45Q22.8-35.45 25.45-34.65 28.1-33.85 30.25-32.4ZM38.1 0L38.1 0Q37.4 0 37-0.45 36.6-0.9 36.6-1.5L36.6-1.5 36.6-23.9Q36.6-24.5 37.02-24.95 37.45-25.4 38.1-25.4L38.1-25.4Q38.75-25.4 39.17-24.95 39.6-24.5 39.6-23.9L39.6-23.9 39.6-16.4 38.85-16.25Q39-18 39.72-19.73 40.45-21.45 41.7-22.9 42.95-24.35 44.67-25.25 46.4-26.15 48.55-26.15L48.55-26.15Q49.45-26.15 50.3-25.78 51.15-25.4 51.15-24.55L51.15-24.55Q51.15-23.8 50.75-23.4 50.35-23 49.8-23L49.8-23Q49.35-23 48.82-23.25 48.3-23.5 47.45-23.5L47.45-23.5Q46.05-23.5 44.65-22.68 43.25-21.85 42.1-20.45 40.95-19.05 40.27-17.32 39.6-15.6 39.6-13.85L39.6-13.85 39.6-1.5Q39.6-0.9 39.15-0.45 38.7 0 38.1 0ZM66.09 0.5L66.09 0.5Q62.25 0.5 59.3-1.15 56.34-2.8 54.7-5.75 53.05-8.7 53.05-12.65L53.05-12.65Q53.05-16.9 54.72-19.9 56.4-22.9 59.07-24.53 61.75-26.15 64.75-26.15L64.75-26.15Q66.95-26.15 69.02-25.38 71.09-24.6 72.7-23.08 74.3-21.55 75.3-19.35 76.3-17.15 76.34-14.25L76.34-14.25Q76.34-13.65 75.9-13.23 75.45-12.8 74.84-12.8L74.84-12.8 54.8-12.8 54.2-15.5 73.9-15.5 73.25-14.9 73.25-15.9Q73-18.25 71.7-19.9 70.4-21.55 68.57-22.4 66.75-23.25 64.75-23.25L64.75-23.25Q63.25-23.25 61.67-22.65 60.09-22.05 58.82-20.78 57.55-19.5 56.75-17.53 55.95-15.55 55.95-12.85L55.95-12.85Q55.95-9.9 57.15-7.5 58.34-5.1 60.59-3.7 62.84-2.3 66.05-2.3L66.05-2.3Q67.75-2.3 69.15-2.8 70.55-3.3 71.62-4.13 72.7-4.95 73.4-5.85L73.4-5.85Q73.95-6.3 74.45-6.3L74.45-6.3Q75-6.3 75.37-5.9 75.75-5.5 75.75-5L75.75-5Q75.75-4.4 75.25-3.95L75.25-3.95Q73.75-2.15 71.34-0.83 68.95 0.5 66.09 0.5ZM103.49-25.55L103.49-25.55Q104.14-25.55 104.57-25.1 104.99-24.65 104.99-24L104.99-24 104.99-1.5Q104.99-0.9 104.54-0.45 104.09 0 103.49 0L103.49 0Q102.79 0 102.39-0.45 101.99-0.9 101.99-1.5L101.99-1.5 101.99-7.45 102.84-7.85Q102.84-6.45 102.07-5 101.29-3.55 99.94-2.3 98.59-1.05 96.77-0.28 94.94 0.5 92.79 0.5L92.79 0.5Q89.44 0.5 86.77-1.25 84.09-3 82.57-6.05 81.04-9.1 81.04-12.9L81.04-12.9Q81.04-16.8 82.59-19.78 84.14-22.75 86.79-24.45 89.44-26.15 92.74-26.15L92.74-26.15Q94.89-26.15 96.77-25.4 98.64-24.65 100.04-23.35 101.44-22.05 102.24-20.38 103.04-18.7 103.04-16.9L103.04-16.9 101.99-17.65 101.99-24Q101.99-24.65 102.39-25.1 102.79-25.55 103.49-25.55ZM93.09-2.3L93.09-2.3Q95.74-2.3 97.79-3.68 99.84-5.05 101.02-7.48 102.19-9.9 102.19-12.9L102.19-12.9Q102.19-15.85 101.02-18.2 99.84-20.55 97.79-21.95 95.74-23.35 93.09-23.35L93.09-23.35Q90.49-23.35 88.42-22 86.34-20.65 85.17-18.3 83.99-15.95 83.99-12.9L83.99-12.9Q83.99-9.9 85.14-7.48 86.29-5.05 88.37-3.68 90.44-2.3 93.09-2.3ZM111.19-25.45L111.19-25.45 122.84-25.45Q123.44-25.45 123.84-25.03 124.24-24.6 124.24-24L124.24-24Q124.24-23.45 123.84-23.05 123.44-22.65 122.84-22.65L122.84-22.65 111.19-22.65Q110.59-22.65 110.17-23.08 109.74-23.5 109.74-24.05L109.74-24.05Q109.74-24.65 110.17-25.05 110.59-25.45 111.19-25.45ZM116.34-32.5L116.34-32.5Q116.99-32.5 117.42-32.05 117.84-31.6 117.84-31L117.84-31 117.84-5.9Q117.84-4.5 118.22-3.8 118.59-3.1 119.19-2.88 119.79-2.65 120.39-2.65L120.39-2.65Q120.79-2.65 121.12-2.78 121.44-2.9 121.84-2.9L121.84-2.9Q122.29-2.9 122.62-2.55 122.94-2.2 122.94-1.65L122.94-1.65Q122.94-0.95 122.14-0.48 121.34 0 120.24 0L120.24 0Q119.79 0 118.89-0.08 117.99-0.15 117.04-0.63 116.09-1.1 115.47-2.3 114.84-3.5 114.84-5.75L114.84-5.75 114.84-31Q114.84-31.6 115.27-32.05 115.69-32.5 116.34-32.5ZM140.89 0.5L140.89 0.5Q137.04 0.5 134.09-1.15 131.14-2.8 129.49-5.75 127.84-8.7 127.84-12.65L127.84-12.65Q127.84-16.9 129.51-19.9 131.19-22.9 133.86-24.53 136.54-26.15 139.54-26.15L139.54-26.15Q141.74-26.15 143.81-25.38 145.89-24.6 147.49-23.08 149.09-21.55 150.09-19.35 151.09-17.15 151.14-14.25L151.14-14.25Q151.14-13.65 150.69-13.23 150.24-12.8 149.64-12.8L149.64-12.8 129.59-12.8 128.99-15.5 148.69-15.5 148.04-14.9 148.04-15.9Q147.79-18.25 146.49-19.9 145.19-21.55 143.36-22.4 141.54-23.25 139.54-23.25L139.54-23.25Q138.04-23.25 136.46-22.65 134.89-22.05 133.61-20.78 132.34-19.5 131.54-17.53 130.74-15.55 130.74-12.85L130.74-12.85Q130.74-9.9 131.94-7.5 133.14-5.1 135.39-3.7 137.64-2.3 140.84-2.3L140.84-2.3Q142.54-2.3 143.94-2.8 145.34-3.3 146.41-4.13 147.49-4.95 148.19-5.85L148.19-5.85Q148.74-6.3 149.24-6.3L149.24-6.3Q149.79-6.3 150.16-5.9 150.54-5.5 150.54-5L150.54-5Q150.54-4.4 150.04-3.95L150.04-3.95Q148.54-2.15 146.14-0.83 143.74 0.5 140.89 0.5ZM192.58-35.2L192.58-35.2Q193.23-35.2 193.66-34.73 194.08-34.25 194.08-33.7L194.08-33.7Q194.08-33.45 194.01-33.23 193.93-33 193.78-32.75L193.78-32.75 182.03-16.6 182.63-18.55 182.63-1.5Q182.63-0.9 182.18-0.45 181.73 0 181.08 0L181.08 0Q180.43 0 180.01-0.45 179.58-0.9 179.58-1.5L179.58-1.5 179.58-18.2 179.83-17 168.38-32.65Q168.18-32.9 168.08-33.18 167.98-33.45 167.98-33.7L167.98-33.7Q167.98-34.35 168.51-34.77 169.03-35.2 169.58-35.2L169.58-35.2Q170.33-35.2 170.83-34.5L170.83-34.5 181.58-19.85 180.83-19.95 191.28-34.5Q191.78-35.2 192.58-35.2ZM220.48-12.8L220.48-12.8Q220.48-9 218.81-5.98 217.13-2.95 214.28-1.23 211.43 0.5 207.83 0.5L207.83 0.5Q204.28 0.5 201.41-1.23 198.53-2.95 196.86-5.98 195.18-9 195.18-12.8L195.18-12.8Q195.18-16.65 196.86-19.65 198.53-22.65 201.41-24.4 204.28-26.15 207.83-26.15L207.83-26.15Q211.43-26.15 214.28-24.4 217.13-22.65 218.81-19.65 220.48-16.65 220.48-12.8ZM217.48-12.8L217.48-12.8Q217.48-15.85 216.23-18.23 214.98-20.6 212.81-21.98 210.63-23.35 207.83-23.35L207.83-23.35Q205.08-23.35 202.91-21.98 200.73-20.6 199.46-18.23 198.18-15.85 198.18-12.8L198.18-12.8Q198.18-9.75 199.46-7.4 200.73-5.05 202.91-3.68 205.08-2.3 207.83-2.3L207.83-2.3Q210.63-2.3 212.81-3.68 214.98-5.05 216.23-7.4 217.48-9.75 217.48-12.8ZM245.73-25.4L245.73-25.4Q246.38-25.4 246.8-24.95 247.23-24.5 247.23-23.9L247.23-23.9 247.23-9.8Q247.23-4.85 244.43-2.25 241.63 0.35 236.88 0.35L236.88 0.35Q232.18 0.35 229.4-2.25 226.63-4.85 226.63-9.8L226.63-9.8 226.63-23.9Q226.63-24.5 227.05-24.95 227.48-25.4 228.13-25.4L228.13-25.4Q228.78-25.4 229.2-24.95 229.63-24.5 229.63-23.9L229.63-23.9 229.63-9.8Q229.63-6.2 231.55-4.33 233.48-2.45 236.88-2.45L236.88-2.45Q240.33-2.45 242.28-4.33 244.23-6.2 244.23-9.8L244.23-9.8 244.23-23.9Q244.23-24.5 244.63-24.95 245.03-25.4 245.73-25.4ZM256.57 0L256.57 0Q255.88 0 255.47-0.45 255.07-0.9 255.07-1.5L255.07-1.5 255.07-23.9Q255.07-24.5 255.5-24.95 255.93-25.4 256.57-25.4L256.57-25.4Q257.23-25.4 257.65-24.95 258.07-24.5 258.07-23.9L258.07-23.9 258.07-16.4 257.32-16.25Q257.48-18 258.2-19.73 258.93-21.45 260.18-22.9 261.43-24.35 263.15-25.25 264.88-26.15 267.02-26.15L267.02-26.15Q267.93-26.15 268.77-25.78 269.63-25.4 269.63-24.55L269.63-24.55Q269.63-23.8 269.23-23.4 268.82-23 268.27-23L268.27-23Q267.82-23 267.3-23.25 266.77-23.5 265.93-23.5L265.93-23.5Q264.52-23.5 263.13-22.68 261.73-21.85 260.57-20.45 259.43-19.05 258.75-17.32 258.07-15.6 258.07-13.85L258.07-13.85 258.07-1.5Q258.07-0.9 257.63-0.45 257.18 0 256.57 0ZM319.92-17.5L319.92-17.5Q319.92-13.55 318.69-10.28 317.47-7 315.22-4.58 312.97-2.15 309.89-0.83 306.82 0.5 303.17 0.5L303.17 0.5Q299.52 0.5 296.44-0.83 293.37-2.15 291.12-4.58 288.87-7 287.64-10.28 286.42-13.55 286.42-17.5L286.42-17.5Q286.42-21.45 287.64-24.73 288.87-28 291.12-30.43 293.37-32.85 296.44-34.18 299.52-35.5 303.17-35.5L303.17-35.5Q306.82-35.5 309.89-34.18 312.97-32.85 315.22-30.43 317.47-28 318.69-24.73 319.92-21.45 319.92-17.5ZM316.72-17.5L316.72-17.5Q316.72-21.95 315-25.33 313.27-28.7 310.22-30.6 307.17-32.5 303.17-32.5L303.17-32.5Q299.22-32.5 296.14-30.6 293.07-28.7 291.34-25.33 289.62-21.95 289.62-17.5L289.62-17.5Q289.62-13.05 291.34-9.68 293.07-6.3 296.14-4.4 299.22-2.5 303.17-2.5L303.17-2.5Q307.17-2.5 310.22-4.4 313.27-6.3 315-9.68 316.72-13.05 316.72-17.5ZM356.62-26.1L356.62-26.1Q357.17-26.1 357.64-25.7 358.12-25.3 358.12-24.6L358.12-24.6Q358.12-24.45 358.07-24.25 358.02-24.05 357.97-23.95L357.97-23.95 350.27-0.95Q350.07-0.5 349.64-0.23 349.22 0.05 348.77 0L348.77 0Q347.87-0.05 347.42-0.95L347.42-0.95 340.37-17.55 341.27-17.35 335.02-0.95Q334.62-0.05 333.67 0L333.67 0Q333.22 0.05 332.77-0.23 332.32-0.5 332.17-0.95L332.17-0.95 324.27-23.95Q324.12-24.3 324.12-24.6L324.12-24.6Q324.12-25.25 324.54-25.68 324.97-26.1 325.67-26.1L325.67-26.1Q326.12-26.1 326.49-25.85 326.87-25.6 327.02-25.1L327.02-25.1 334.12-3.8 333.17-3.85 339.62-20.1Q340.02-21.05 341.02-21.05L341.02-21.05Q341.52-21.05 341.87-20.8 342.22-20.55 342.42-20.1L342.42-20.1 349.27-3.8 348.17-3.75 355.22-25.1Q355.52-26.1 356.62-26.1ZM375.92-26.15L375.92-26.15Q379.22-26.15 381.19-24.83 383.17-23.5 384.04-21.23 384.92-18.95 384.92-16.2L384.92-16.2 384.92-1.5Q384.92-0.9 384.47-0.45 384.02 0 383.42 0L383.42 0Q382.72 0 382.31-0.45 381.92-0.9 381.92-1.5L381.92-1.5 381.92-16.05Q381.92-18.05 381.27-19.7 380.62-21.35 379.14-22.35 377.67-23.35 375.27-23.35L375.27-23.35Q373.12-23.35 371.19-22.35 369.27-21.35 368.06-19.7 366.87-18.05 366.87-16.05L366.87-16.05 366.87-1.5Q366.87-0.9 366.42-0.45 365.97 0 365.37 0L365.37 0Q364.67 0 364.27-0.45 363.87-0.9 363.87-1.5L363.87-1.5 363.87-23.9Q363.87-24.5 364.29-24.95 364.72-25.4 365.37-25.4L365.37-25.4Q366.02-25.4 366.44-24.95 366.87-24.5 366.87-23.9L366.87-23.9 366.87-19.7 365.72-17.9Q365.81-19.5 366.74-20.98 367.67-22.45 369.12-23.63 370.56-24.8 372.34-25.48 374.12-26.15 375.92-26.15ZM408.66-35L421.41-35Q425.11-35 427.88-33.6 430.66-32.2 432.46-29.73 434.26-27.25 435.13-24.1 436.01-20.95 436.01-17.5L436.01-17.5Q436.01-12.7 434.44-8.72 432.86-4.75 429.63-2.38 426.41 0 421.41 0L421.41 0 408.66 0Q408.06 0 407.61-0.45 407.16-0.9 407.16-1.5L407.16-1.5 407.16-33.5Q407.16-34.1 407.61-34.55 408.06-35 408.66-35L408.66-35ZM410.01-2.95L420.91-2.95Q425.16-2.95 427.76-4.9 430.36-6.85 431.58-10.18 432.81-13.5 432.81-17.5L432.81-17.5Q432.81-20.4 432.13-23.03 431.46-25.65 430.03-27.68 428.61-29.7 426.33-30.88 424.06-32.05 420.91-32.05L420.91-32.05 409.96-32.05 410.31-32.5 410.31-2.45 410.01-2.95ZM443.86 0L443.86 0Q443.16 0 442.76-0.45 442.36-0.9 442.36-1.5L442.36-1.5 442.36-23.9Q442.36-24.5 442.78-24.95 443.21-25.4 443.86-25.4L443.86-25.4Q444.51-25.4 444.93-24.95 445.36-24.5 445.36-23.9L445.36-23.9 445.36-16.4 444.61-16.25Q444.76-18 445.48-19.73 446.21-21.45 447.46-22.9 448.71-24.35 450.43-25.25 452.16-26.15 454.31-26.15L454.31-26.15Q455.21-26.15 456.06-25.78 456.91-25.4 456.91-24.55L456.91-24.55Q456.91-23.8 456.51-23.4 456.11-23 455.56-23L455.56-23Q455.11-23 454.58-23.25 454.06-23.5 453.21-23.5L453.21-23.5Q451.81-23.5 450.41-22.68 449.01-21.85 447.86-20.45 446.71-19.05 446.03-17.32 445.36-15.6 445.36-13.85L445.36-13.85 445.36-1.5Q445.36-0.9 444.91-0.45 444.46 0 443.86 0ZM471.85 0.5L471.85 0.5Q468 0.5 465.05-1.15 462.1-2.8 460.45-5.75 458.8-8.7 458.8-12.65L458.8-12.65Q458.8-16.9 460.48-19.9 462.15-22.9 464.83-24.53 467.5-26.15 470.5-26.15L470.5-26.15Q472.7-26.15 474.78-25.38 476.85-24.6 478.45-23.08 480.05-21.55 481.05-19.35 482.05-17.15 482.1-14.25L482.1-14.25Q482.1-13.65 481.65-13.23 481.2-12.8 480.6-12.8L480.6-12.8 460.55-12.8 459.95-15.5 479.65-15.5 479-14.9 479-15.9Q478.75-18.25 477.45-19.9 476.15-21.55 474.33-22.4 472.5-23.25 470.5-23.25L470.5-23.25Q469-23.25 467.43-22.65 465.85-22.05 464.58-20.78 463.3-19.5 462.5-17.53 461.7-15.55 461.7-12.85L461.7-12.85Q461.7-9.9 462.9-7.5 464.1-5.1 466.35-3.7 468.6-2.3 471.8-2.3L471.8-2.3Q473.5-2.3 474.9-2.8 476.3-3.3 477.38-4.13 478.45-4.95 479.15-5.85L479.15-5.85Q479.7-6.3 480.2-6.3L480.2-6.3Q480.75-6.3 481.13-5.9 481.5-5.5 481.5-5L481.5-5Q481.5-4.4 481-3.95L481-3.95Q479.5-2.15 477.1-0.83 474.7 0.5 471.85 0.5ZM509.25-25.55L509.25-25.55Q509.9-25.55 510.33-25.1 510.75-24.65 510.75-24L510.75-24 510.75-1.5Q510.75-0.9 510.3-0.45 509.85 0 509.25 0L509.25 0Q508.55 0 508.15-0.45 507.75-0.9 507.75-1.5L507.75-1.5 507.75-7.45 508.6-7.85Q508.6-6.45 507.83-5 507.05-3.55 505.7-2.3 504.35-1.05 502.53-0.28 500.7 0.5 498.55 0.5L498.55 0.5Q495.2 0.5 492.53-1.25 489.85-3 488.33-6.05 486.8-9.1 486.8-12.9L486.8-12.9Q486.8-16.8 488.35-19.78 489.9-22.75 492.55-24.45 495.2-26.15 498.5-26.15L498.5-26.15Q500.65-26.15 502.53-25.4 504.4-24.65 505.8-23.35 507.2-22.05 508-20.38 508.8-18.7 508.8-16.9L508.8-16.9 507.75-17.65 507.75-24Q507.75-24.65 508.15-25.1 508.55-25.55 509.25-25.55ZM498.85-2.3L498.85-2.3Q501.5-2.3 503.55-3.68 505.6-5.05 506.78-7.48 507.95-9.9 507.95-12.9L507.95-12.9Q507.95-15.85 506.78-18.2 505.6-20.55 503.55-21.95 501.5-23.35 498.85-23.35L498.85-23.35Q496.25-23.35 494.18-22 492.1-20.65 490.93-18.3 489.75-15.95 489.75-12.9L489.75-12.9Q489.75-9.9 490.9-7.48 492.05-5.05 494.13-3.68 496.2-2.3 498.85-2.3ZM530.1-25.75L530.1-25.75Q533.2-25.75 535.4-24.13 537.6-22.5 538.4-19.3L538.4-19.3 537.7-19.1 538-20Q538.65-21.5 540.17-22.83 541.7-24.15 543.65-24.95 545.6-25.75 547.6-25.75L547.6-25.75Q550.75-25.75 552.67-24.4 554.6-23.05 555.47-20.78 556.35-18.5 556.35-15.65L556.35-15.65 556.35-1.5Q556.35-0.9 555.92-0.45 555.5 0 554.85 0L554.85 0Q554.2 0 553.77-0.45 553.35-0.9 553.35-1.5L553.35-1.5 553.35-15.5Q553.35-17.55 552.7-19.25 552.05-20.95 550.65-21.95 549.25-22.95 546.9-22.95L546.9-22.95Q544.85-22.95 542.97-21.95 541.1-20.95 539.92-19.25 538.75-17.55 538.75-15.5L538.75-15.5 538.75-1.5Q538.75-0.9 538.32-0.45 537.9 0 537.25 0L537.25 0Q536.6 0 536.17-0.45 535.75-0.9 535.75-1.5L535.75-1.5 535.75-15.65Q535.75-17.7 535.15-19.35 534.55-21 533.2-21.98 531.85-22.95 529.55-22.95L529.55-22.95Q527.5-22.95 525.67-21.98 523.85-21 522.72-19.35 521.6-17.7 521.6-15.65L521.6-15.65 521.6-1.5Q521.6-0.9 521.15-0.45 520.7 0 520.1 0L520.1 0Q519.4 0 519-0.45 518.6-0.9 518.6-1.5L518.6-1.5 518.6-23.9Q518.6-24.5 519.02-24.95 519.45-25.4 520.1-25.4L520.1-25.4Q520.75-25.4 521.17-24.95 521.6-24.5 521.6-23.9L521.6-23.9 521.6-19.25 520.25-17.4Q520.4-18.9 521.22-20.4 522.05-21.9 523.4-23.1 524.75-24.3 526.47-25.03 528.2-25.75 530.1-25.75ZM562.75-4.05L562.75-4.05Q562.35-4.65 562.37-5.23 562.4-5.8 563-6.15L563-6.15Q563.4-6.5 563.92-6.45 564.45-6.4 564.9-5.95L564.9-5.95Q566.25-4.2 568.17-3.13 570.1-2.05 572.75-2.05L572.75-2.05Q574.15-2.05 575.52-2.53 576.9-3 577.8-3.98 578.7-4.95 578.7-6.45L578.7-6.45Q578.7-8 577.8-8.95 576.9-9.9 575.47-10.45 574.05-11 572.45-11.4L572.45-11.4Q570.75-11.85 569.15-12.43 567.55-13 566.32-13.88 565.1-14.75 564.35-16 563.6-17.25 563.6-19.05L563.6-19.05Q563.6-21.15 564.75-22.75 565.9-24.35 567.87-25.25 569.85-26.15 572.35-26.15L572.35-26.15Q573.6-26.15 575.05-25.83 576.5-25.5 577.9-24.75 579.3-24 580.4-22.7L580.4-22.7Q580.85-22.25 580.85-21.68 580.85-21.1 580.35-20.65L580.35-20.65Q579.95-20.35 579.42-20.35 578.9-20.35 578.55-20.75L578.55-20.75Q577.35-22.1 575.7-22.8 574.05-23.5 572.15-23.5L572.15-23.5Q570.7-23.5 569.42-23.03 568.15-22.55 567.3-21.6 566.45-20.65 566.45-19.1L566.45-19.1Q566.55-17.65 567.47-16.75 568.4-15.85 569.92-15.25 571.45-14.65 573.35-14.15L573.35-14.15Q574.95-13.75 576.42-13.2 577.9-12.65 579.02-11.83 580.15-11 580.82-9.75 581.5-8.5 581.5-6.6L581.5-6.6Q581.5-4.4 580.27-2.8 579.05-1.2 577-0.35 574.95 0.5 572.45 0.5L572.45 0.5Q569.75 0.5 567.22-0.55 564.7-1.6 562.75-4.05Z" opacity="1" transform="matrix(1,0,0,1,0,0)" fill="#000000" class="slogan-text-1" data-fill-palette-color="secondary" id="text-1"></path></svg></g></svg></g></svg></g></svg></g></svg></g><defs></defs></svg><rect width="395.52" height="67.34934986422316" fill="none" stroke="none" visibility="hidden"></rect></g></svg></g></svg>