<svg xmlns="http://www.w3.org/2000/svg" version="1.1" xmlns:xlink="http://www.w3.org/1999/xlink" xmlns:svgjs="http://svgjs.dev/svgjs" width="1500" height="1500" viewBox="0 0 1500 1500"><rect width="1500" height="1500" fill="#ffffff"></rect><g transform="matrix(0.6666666666666666,0,0,0.6666666666666666,249.39393939393938,435.99032258064517)"><svg viewBox="0 0 396 248" data-background-color="#ffffff" preserveAspectRatio="xMidYMid meet" height="939" width="1500" xmlns="http://www.w3.org/2000/svg" xmlns:xlink="http://www.w3.org/1999/xlink"><g id="tight-bounds" transform="matrix(1,0,0,1,0.2400000000000091,0.4000000000000057)"><svg viewBox="0 0 395.52 247.2" height="247.2" width="395.52"><g><svg></svg></g><g><svg viewBox="0 0 395.52 247.2" height="247.2" width="395.52"><g transform="matrix(1,0,0,1,75.54432,101.14865603931676)"><svg viewBox="0 0 244.43135999999998 44.90268792136645" height="44.90268792136645" width="244.43135999999998"><g><svg viewBox="0 0 244.43135999999998 44.90268792136645" height="44.90268792136645" width="244.43135999999998"><g><svg viewBox="0 0 244.43135999999998 44.90268792136645" height="44.90268792136645" width="244.43135999999998"><g><svg viewBox="0 0 244.43135999999998 44.90268792136645" height="44.90268792136645" width="244.43135999999998"><g id="textblocktransform"><svg viewBox="0 0 244.43135999999998 44.90268792136645" height="44.90268792136645" width="244.43135999999998" id="textblock"><g><svg viewBox="0 0 244.43135999999998 24.218364253335057" height="24.218364253335057" width="244.43135999999998"><g transform="matrix(1,0,0,1,0,0)"><svg width="244.43135999999998" viewBox="1.17 -36.74 376.96999999999997 37.35" height="24.218364253335057" data-palette-color="#113f67"><path d="M13.09 0L8.33 0 1.17-33.84 5.35-33.84 8.91-15.19Q9.4-12.45 9.92-9.74 10.45-7.03 10.91-4.27L10.91-4.27 11.11-4.27Q11.69-7.03 12.32-9.74 12.94-12.45 13.55-15.19L13.55-15.19 18.43-33.84 22.09-33.84 26.78-15.19Q27.44-12.48 28.08-9.75 28.71-7.03 29.32-4.27L29.32-4.27 29.52-4.27Q30.03-7.03 30.51-9.75 30.98-12.48 31.47-15.19L31.47-15.19 35.23-33.84 39.11-33.84 31.88 0 27.1 0 21.9-20.75Q21.46-22.78 21.04-24.65 20.63-26.51 20.24-28.49L20.24-28.49 20.04-28.49Q19.65-26.51 19.2-24.65 18.75-22.78 18.33-20.75L18.33-20.75 13.09 0ZM64.96 0L45.09 0 45.09-33.84 64.45-33.84 64.45-30.44 49.09-30.44 49.09-19.53 62.03-19.53 62.03-16.06 49.09-16.06 49.09-3.39 64.96-3.39 64.96 0ZM81.71 0L77.12 0 68.06-24.98 72.14-24.98 77.02-10.6Q77.58-8.74 78.17-6.88 78.75-5.03 79.34-3.22L79.34-3.22 79.56-3.22Q80.12-5.03 80.73-6.88 81.34-8.74 81.88-10.6L81.88-10.6 86.76-24.98 90.62-24.98 81.71 0ZM105.14 0.61L105.14 0.61Q102.12 0.61 99.49-0.93 96.87-2.47 95.27-5.38 93.67-8.3 93.67-12.45L93.67-12.45Q93.67-16.63 95.27-19.57 96.87-22.51 99.49-24.06 102.12-25.61 105.14-25.61L105.14-25.61Q108.22-25.61 110.86-24.06 113.49-22.51 115.09-19.57 116.69-16.63 116.69-12.45L116.69-12.45Q116.69-8.3 115.09-5.38 113.49-2.47 110.86-0.93 108.22 0.61 105.14 0.61ZM105.14-2.66L105.14-2.66Q108.49-2.66 110.56-5.36 112.64-8.06 112.64-12.45L112.64-12.45Q112.64-16.87 110.56-19.59 108.49-22.31 105.14-22.31L105.14-22.31Q102.97-22.31 101.29-21.07 99.6-19.82 98.66-17.61 97.72-15.41 97.72-12.45L97.72-12.45Q97.72-8.06 99.8-5.36 101.87-2.66 105.14-2.66ZM127.68 0.61L127.68 0.61Q125.43 0.61 124.42-0.77 123.4-2.15 123.4-4.79L123.4-4.79 123.4-36.74 127.36-36.74 127.36-4.47Q127.36-3.47 127.72-3.06 128.09-2.66 128.6-2.66L128.6-2.66Q128.8-2.66 128.98-2.67 129.16-2.69 129.48-2.76L129.48-2.76 129.99 0.2Q129.58 0.37 128.99 0.49 128.41 0.61 127.68 0.61ZM146.35 0L141.76 0 132.7-24.98 136.78-24.98 141.66-10.6Q142.22-8.74 142.81-6.88 143.4-5.03 143.98-3.22L143.98-3.22 144.2-3.22Q144.76-5.03 145.37-6.88 145.98-8.74 146.52-10.6L146.52-10.6 151.4-24.98 155.26-24.98 146.35 0ZM170.2 0.61L170.2 0.61Q166.9 0.61 164.21-0.95 161.51-2.51 159.91-5.44 158.31-8.37 158.31-12.45L158.31-12.45Q158.31-16.53 159.91-19.48 161.51-22.44 164.07-24.02 166.64-25.61 169.49-25.61L169.49-25.61Q174.2-25.61 176.79-22.46 179.38-19.31 179.38-13.89L179.38-13.89Q179.38-12.52 179.23-11.57L179.23-11.57 162.22-11.57Q162.41-7.5 164.71-5 167-2.51 170.66-2.51L170.66-2.51Q172.54-2.51 174.11-3.02 175.67-3.52 177.01-4.42L177.01-4.42 178.4-1.95Q176.77-0.83 174.79-0.11 172.81 0.61 170.2 0.61ZM162.17-14.43L162.17-14.43 175.89-14.43Q175.89-18.36 174.23-20.41 172.57-22.46 169.54-22.46L169.54-22.46Q166.83-22.46 164.69-20.36 162.56-18.26 162.17-14.43ZM206.13 0L202.13 0 202.13-33.84 211.6-33.84Q215.39-33.84 218.23-32.9 221.07-31.96 222.65-29.8 224.22-27.64 224.22-23.95L224.22-23.95Q224.22-18.65 220.79-16.13 217.36-13.6 211.8-13.6L211.8-13.6 206.13-13.6 206.13 0ZM206.13-30.54L206.13-16.85 211.23-16.85Q215.8-16.85 218.01-18.54 220.22-20.24 220.22-23.95L220.22-23.95Q220.22-27.71 217.92-29.13 215.63-30.54 211.04-30.54L211.04-30.54 206.13-30.54ZM236.53 0.61L236.53 0.61Q233.4 0.61 231.3-1.21 229.2-3.03 229.2-6.42L229.2-6.42Q229.2-10.52 232.92-12.72 236.65-14.92 244.68-15.82L244.68-15.82Q244.68-17.48 244.23-18.97 243.78-20.46 242.64-21.41 241.51-22.36 239.41-22.36L239.41-22.36Q237.18-22.36 235.24-21.51 233.3-20.65 231.84-19.73L231.84-19.73 230.3-22.36Q231.96-23.51 234.49-24.56 237.01-25.61 240.04-25.61L240.04-25.61Q244.61-25.61 246.62-22.8 248.63-20 248.63-15.41L248.63-15.41 248.63 0 245.34 0 245.02-3.03 244.87-3.03Q243.07-1.54 240.96-0.46 238.84 0.61 236.53 0.61ZM237.6-2.56L237.6-2.56Q239.48-2.56 241.13-3.44 242.78-4.32 244.68-5.96L244.68-5.96 244.68-13.18Q240.36-12.65 237.82-11.77 235.28-10.89 234.18-9.64 233.08-8.4 233.08-6.74L233.08-6.74Q233.08-4.52 234.4-3.54 235.72-2.56 237.6-2.56ZM260.57 0L256.62 0 256.62-24.98 259.91-24.98 260.28-20.46 260.38-20.46Q261.69-22.8 263.52-24.21 265.36-25.61 267.48-25.61L267.48-25.61Q269.09-25.61 270.12-25.1L270.12-25.1 269.24-21.73Q268.7-21.9 268.22-21.97 267.75-22.05 266.97-22.05L266.97-22.05Q265.38-22.05 263.62-20.74 261.86-19.43 260.57-16.16L260.57-16.16 260.57 0ZM282 0.61L282 0.61Q278.07 0.61 276.54-1.66 275-3.93 275-7.62L275-7.62 275-21.73 271.29-21.73 271.29-24.78 275.22-24.98 275.68-33.08 278.98-33.08 278.98-24.98 285.84-24.98 285.84-21.73 278.98-21.73 278.98-7.52Q278.98-5.2 279.83-3.91 280.69-2.61 282.88-2.61L282.88-2.61Q283.54-2.61 284.27-2.75 285.01-2.88 285.76-3.22L285.76-3.22 286.64-0.44Q285.64 0 284.45 0.31 283.25 0.61 282 0.61ZM295.45 0L291.5 0 291.5-24.98 294.79-24.98 295.16-21.39 295.26-21.39Q297.06-23.17 299.09-24.39 301.12-25.61 303.71-25.61L303.71-25.61Q307.61-25.61 309.44-23.13 311.27-20.65 311.27-15.87L311.27-15.87 311.27 0 307.37 0 307.37-15.36Q307.37-18.92 306.22-20.56 305.07-22.19 302.46-22.19L302.46-22.19Q300.53-22.19 298.97-21.17 297.41-20.14 295.45-18.19L295.45-18.19 295.45 0ZM329.56 0.61L329.56 0.61Q326.26 0.61 323.56-0.95 320.87-2.51 319.27-5.44 317.67-8.37 317.67-12.45L317.67-12.45Q317.67-16.53 319.27-19.48 320.87-22.44 323.43-24.02 325.99-25.61 328.85-25.61L328.85-25.61Q333.56-25.61 336.15-22.46 338.74-19.31 338.74-13.89L338.74-13.89Q338.74-12.52 338.59-11.57L338.59-11.57 321.57-11.57Q321.77-7.5 324.06-5 326.36-2.51 330.02-2.51L330.02-2.51Q331.9-2.51 333.46-3.02 335.03-3.52 336.37-4.42L336.37-4.42 337.76-1.95Q336.12-0.83 334.15-0.11 332.17 0.61 329.56 0.61ZM321.53-14.43L321.53-14.43 335.25-14.43Q335.25-18.36 333.59-20.41 331.93-22.46 328.9-22.46L328.9-22.46Q326.19-22.46 324.05-20.36 321.92-18.26 321.53-14.43ZM348.92 0L344.96 0 344.96-24.98 348.26-24.98 348.62-20.46 348.72-20.46Q350.04-22.8 351.87-24.21 353.7-25.61 355.82-25.61L355.82-25.61Q357.44-25.61 358.46-25.1L358.46-25.1 357.58-21.73Q357.05-21.9 356.57-21.97 356.09-22.05 355.31-22.05L355.31-22.05Q353.72-22.05 351.97-20.74 350.21-19.43 348.92-16.16L348.92-16.16 348.92 0ZM369.13 0.61L369.13 0.61Q366.34 0.61 363.95-0.33 361.56-1.27 359.85-2.93L359.85-2.93 361.71-5.25Q363.29-3.93 365.09-3.2 366.88-2.47 369.27-2.47L369.27-2.47Q371.79-2.47 373.06-3.67 374.33-4.88 374.33-6.54L374.33-6.54Q374.33-7.86 373.5-8.73 372.67-9.59 371.36-10.21 370.06-10.82 368.61-11.33L368.61-11.33Q366.76-12.01 365.07-12.92 363.39-13.82 362.32-15.19 361.24-16.55 361.24-18.6L361.24-18.6Q361.24-21.53 363.46-23.57 365.69-25.61 369.74-25.61L369.74-25.61Q372.06-25.61 374.02-24.82 375.99-24.02 377.43-22.83L377.43-22.83 375.62-20.51Q374.3-21.46 372.9-21.98 371.5-22.51 369.79-22.51L369.79-22.51Q367.32-22.51 366.19-21.37 365.05-20.24 365.05-18.8L365.05-18.8Q365.05-17.02 366.56-16.11 368.08-15.21 370.35-14.36L370.35-14.36Q372.33-13.67 374.11-12.78 375.89-11.89 377.01-10.47 378.14-9.06 378.14-6.74L378.14-6.74Q378.14-3.71 375.82-1.55 373.5 0.61 369.13 0.61Z" opacity="1" transform="matrix(1,0,0,1,0,0)" fill="#113f67" class="wordmark-text-0" data-fill-palette-color="primary" id="text-0"></path></svg></g></svg></g><g transform="matrix(1,0,0,1,0,29.935738812805383)"><svg viewBox="0 0 244.43135999999998 14.966949108561066" height="14.966949108561066" width="244.43135999999998"><g transform="matrix(1,0,0,1,0,0)"><svg width="244.43135999999998" viewBox="2.81 -35.64 591.69 36.230000000000004" height="14.966949108561066" data-palette-color="#87c0cd"><path d="M27.1-4.76L28.25-1Q25.98-0.29 23.45 0.15 20.92 0.59 17.9 0.59L17.9 0.59Q10.42 0.59 6.62-3.88 2.81-8.35 2.81-17.04L2.81-17.04Q2.81-26.27 6.62-30.96 10.42-35.64 17.9-35.64L17.9-35.64Q20.73-35.64 22.99-35.16 25.24-34.67 27.34-33.89L27.34-33.89 26.07-30.27Q25.07-30.64 24.1-30.93 23.12-31.23 22.13-31.42 21.14-31.62 20.09-31.71 19.04-31.81 17.9-31.81L17.9-31.81Q15.19-31.81 13.23-30.85 11.28-29.88 10.01-28.04 8.74-26.2 8.13-23.55 7.52-20.9 7.52-17.53L7.52-17.53Q7.52-14.06 8.13-11.4 8.74-8.74 10.01-6.92 11.28-5.1 13.23-4.17 15.19-3.25 17.9-3.25L17.9-3.25Q20.39-3.25 22.63-3.66 24.88-4.08 27.1-4.76L27.1-4.76ZM41.01-19.51L41.23-19.51Q41.98-21.02 42.85-22.24 43.72-23.46 44.77-24.32L44.77-24.32Q45.72-25.15 46.87-25.55 48.01-25.95 49.48-25.95L49.48-25.95Q49.97-25.95 50.61-25.9 51.26-25.85 51.85-25.73L51.85-25.73Q51.75-24.51 51.61-23.44 51.48-22.36 51.26-21.26L51.26-21.26Q50.04-21.48 49.03-21.58 48.01-21.68 47.11-21.53L47.11-21.53Q46.03-21.34 45.24-20.81 44.45-20.29 43.78-19.42 43.11-18.55 42.47-17.35 41.84-16.14 41.08-14.58L41.08-14.58 41.08 0 36.88 0 36.88-15.65Q36.88-17.19 36.84-18.36 36.81-19.53 36.7-20.59 36.59-21.66 36.37-22.69 36.15-23.73 35.78-25L35.78-25Q36.81-25.27 37.8-25.49 38.78-25.71 39.81-25.9L39.81-25.9Q40.15-24.93 40.36-24.17 40.57-23.41 40.69-22.69 40.81-21.97 40.87-21.23 40.93-20.48 41.01-19.51L41.01-19.51ZM77.08-4.71L78.3-1.42Q75.59-0.34 73.21 0.12 70.83 0.59 68.95 0.59L68.95 0.59Q66.07 0.59 63.92-0.33 61.77-1.25 60.34-2.91 58.92-4.57 58.2-6.87 57.48-9.18 57.48-11.96L57.48-11.96Q57.48-13.67 57.72-15.38 57.96-17.09 58.5-18.64 59.04-20.19 59.9-21.53 60.77-22.88 62.02-23.85 63.26-24.83 64.92-25.39 66.58-25.95 68.71-25.95L68.71-25.95Q74.15-25.95 76.91-22.55 79.67-19.14 79.67-12.79L79.67-12.79 79.67-11.45 61.8-11.45Q61.8-9.4 62.24-7.82 62.68-6.25 63.59-5.16 64.51-4.08 65.91-3.52 67.31-2.95 69.24-2.95L69.24-2.95Q70.32-2.95 71.38-3.11 72.44-3.27 73.44-3.53 74.44-3.78 75.36-4.1 76.27-4.42 77.08-4.71L77.08-4.71ZM61.92-14.82L75.44-14.82Q75.25-18.77 73.55-20.59 71.86-22.41 68.71-22.41L68.71-22.41Q65.56-22.41 63.91-20.59 62.26-18.77 61.92-14.82L61.92-14.82ZM90.01-20.9L90.01-20.9 88.93-24.32Q93.04-25.95 97.53-25.95L97.53-25.95Q101.46-25.95 103.53-24.63L103.53-24.63Q105.9-23.12 105.9-19.48L105.9-19.48 105.9-9.5Q105.9-7.5 105.95-5.4L105.95-5.4Q105.98-4.15 106.2-2.81L106.2-2.81Q106.39-1.54 106.71-0.39L106.71-0.39 102.7 0.49Q102.14-1.15 102-3.17L102-3.17 101.51-3.22Q98.48 0.59 93.79 0.59L93.79 0.59Q90.38 0.59 88.3-1.31 86.22-3.2 86.22-6.64L86.22-6.64Q86.22-9.2 87.36-10.84 88.5-12.48 90.57-13.6L90.57-13.6Q93.84-15.38 99.73-15.38L99.73-15.38Q100.51-15.38 101.83-15.33L101.83-15.33 101.83-19.04Q101.83-20.8 100.75-21.58 99.68-22.36 97.38-22.36L97.38-22.36Q94.04-22.36 90.01-20.9ZM101.83-7.13L101.83-7.13 101.83-12.26Q101.17-12.3 99.9-12.3L99.9-12.3Q97.75-12.3 95.94-11.94L95.94-11.94Q93.26-11.4 91.78-10.24 90.3-9.08 90.3-6.91L90.3-6.91Q90.3-3 94.55-3L94.55-3Q96.75-3 98.65-4.17L98.65-4.17Q100.21-5.15 101.83-7.13ZM118.49-25.39L118.49-31.2 122.69-31.2 122.69-25.39 131.23-25.39 131.23-21.85 122.69-21.85 122.69-7.28Q122.69-5.81 122.77-5.04 122.86-4.27 123.2-3.83L123.2-3.83Q123.84-2.95 125.77-2.95L125.77-2.95Q126.84-2.95 127.84-3.17L127.84-3.17Q128.87-3.39 129.72-3.66L129.72-3.66Q130.4-2.17 130.97-0.39L130.97-0.39Q128.09 0.59 125.16 0.59L125.16 0.59Q123.03 0.59 121.75 0.11 120.47-0.37 119.74-1.44L119.74-1.44Q118.98-2.56 118.73-4.13 118.49-5.69 118.49-8.45L118.49-8.45 118.49-21.85 114.83-21.85 114.83-25.39 118.49-25.39ZM157.35-4.71L158.57-1.42Q155.86-0.34 153.48 0.12 151.1 0.59 149.22 0.59L149.22 0.59Q146.34 0.59 144.19-0.33 142.04-1.25 140.61-2.91 139.18-4.57 138.46-6.87 137.74-9.18 137.74-11.96L137.74-11.96Q137.74-13.67 137.99-15.38 138.23-17.09 138.77-18.64 139.31-20.19 140.17-21.53 141.04-22.88 142.28-23.85 143.53-24.83 145.19-25.39 146.85-25.95 148.97-25.95L148.97-25.95Q154.42-25.95 157.18-22.55 159.94-19.14 159.94-12.79L159.94-12.79 159.94-11.45 142.06-11.45Q142.06-9.4 142.5-7.82 142.94-6.25 143.86-5.16 144.77-4.08 146.18-3.52 147.58-2.95 149.51-2.95L149.51-2.95Q150.58-2.95 151.65-3.11 152.71-3.27 153.71-3.53 154.71-3.78 155.63-4.1 156.54-4.42 157.35-4.71L157.35-4.71ZM142.19-14.82L155.71-14.82Q155.52-18.77 153.82-20.59 152.12-22.41 148.97-22.41L148.97-22.41Q145.82-22.41 144.18-20.59 142.53-18.77 142.19-14.82L142.19-14.82ZM214.65-17.55L214.65-17.55Q214.65-8.74 210.67-4.08 206.69 0.59 199.25 0.59L199.25 0.59Q191.87 0.59 187.86-4.06 183.84-8.72 183.84-17.55L183.84-17.55Q183.84-26.37 187.87-31.01 191.9-35.64 199.25-35.64L199.25-35.64Q206.69-35.64 210.67-30.97 214.65-26.29 214.65-17.55ZM209.94-17.55L209.94-17.55Q209.94-24.34 207.27-28.08 204.59-31.81 199.22-31.81L199.22-31.81Q193.83-31.81 191.19-28.04 188.55-24.27 188.55-17.55L188.55-17.55Q188.55-14.26 189.18-11.66 189.8-9.06 191.08-7.17 192.36-5.27 194.42-4.26 196.49-3.25 199.22-3.25L199.22-3.25Q204.59-3.25 207.27-6.99 209.94-10.74 209.94-17.55ZM244.74-0.44L244.74-0.44 240.69 0.46Q240.23-1 240.03-2.37L240.03-2.37Q239.93-3 239.79-4.96L239.79-4.96 239.28-4.96Q237.93-2.49 235.96-1.03L235.96-1.03Q233.78 0.59 231.37 0.59L231.37 0.59Q227.73 0.59 225.82-1.17L225.82-1.17Q224.19-2.66 223.55-5.74L223.55-5.74Q223.14-7.84 223.14-11.99L223.14-11.99 223.14-25.39 227.34-25.39 227.34-10.82Q227.34-7.18 228.05-5.62L228.05-5.62Q229.09-3.3 232.27-3.3L232.27-3.3Q234.51-3.3 236.66-5.44L236.66-5.44Q238.1-6.88 239.74-9.67L239.74-9.67 239.74-25.39 243.94-25.39 243.94-9.72Q243.94-6.47 244.11-4.08L244.11-4.08Q244.21-2.59 244.74-0.44ZM258.67-19.51L258.89-19.51Q259.65-21.02 260.52-22.24 261.38-23.46 262.43-24.32L262.43-24.32Q263.39-25.15 264.53-25.55 265.68-25.95 267.15-25.95L267.15-25.95Q267.63-25.95 268.28-25.9 268.93-25.85 269.51-25.73L269.51-25.73Q269.42-24.51 269.28-23.44 269.15-22.36 268.93-21.26L268.93-21.26Q267.71-21.48 266.69-21.58 265.68-21.68 264.78-21.53L264.78-21.53Q263.7-21.34 262.91-20.81 262.12-20.29 261.45-19.42 260.77-18.55 260.14-17.35 259.5-16.14 258.75-14.58L258.75-14.58 258.75 0 254.55 0 254.55-15.65Q254.55-17.19 254.51-18.36 254.48-19.53 254.37-20.59 254.26-21.66 254.04-22.69 253.82-23.73 253.45-25L253.45-25Q254.48-25.27 255.46-25.49 256.45-25.71 257.48-25.9L257.48-25.9Q257.82-24.93 258.03-24.17 258.24-23.41 258.36-22.69 258.48-21.97 258.54-21.23 258.6-20.48 258.67-19.51L258.67-19.51ZM322.84-17.55L322.84-17.55Q322.84-8.74 318.86-4.08 314.88 0.59 307.43 0.59L307.43 0.59Q300.06 0.59 296.04-4.06 292.03-8.72 292.03-17.55L292.03-17.55Q292.03-26.37 296.06-31.01 300.09-35.64 307.43-35.64L307.43-35.64Q314.88-35.64 318.86-30.97 322.84-26.29 322.84-17.55ZM318.13-17.55L318.13-17.55Q318.13-24.34 315.45-28.08 312.78-31.81 307.41-31.81L307.41-31.81Q302.01-31.81 299.38-28.04 296.74-24.27 296.74-17.55L296.74-17.55Q296.74-14.26 297.36-11.66 297.99-9.06 299.27-7.17 300.55-5.27 302.61-4.26 304.68-3.25 307.41-3.25L307.41-3.25Q312.78-3.25 315.45-6.99 318.13-10.74 318.13-17.55ZM354.98 0L354.98 0 349.39 0 346.34-11.79 341.43 0 335.92 0 329.42-25.42 333.62-25.42 338.97-3.05 344.88-17.7 342.9-25.42 347.1-25.42 352.59-3.05Q355.23-9.16 356.28-12.23L356.28-12.23Q357.55-15.97 357.55-18.65L357.55-18.65Q357.55-21 356.4-24.98L356.4-24.98Q358.62-25.54 360.43-25.88L360.43-25.88Q361.45-23.36 361.72-20.46L361.72-20.46Q361.79-19.73 361.79-18.97L361.79-18.97Q361.79-14.97 359.55-9.64L359.55-9.64Q358.94-8.23 358.17-6.6 357.4-4.98 356.36-2.84 355.32-0.71 354.98 0ZM369.84-24.95L369.84-24.95 373.89-25.85Q374.36-24.39 374.55-23.02L374.55-23.02Q374.65-22.36 374.8-20.41L374.8-20.41 375.31-20.41Q376.65-22.88 378.63-24.34L378.63-24.34Q380.8-25.95 383.22-25.95L383.22-25.95Q386.86-25.95 388.76-24.19L388.76-24.19Q390.4-22.71 391.03-19.63L391.03-19.63Q391.45-17.53 391.45-13.38L391.45-13.38 391.45 0 387.25 0 387.25-14.55Q387.25-18.19 386.54-19.75L386.54-19.75Q385.49-22.07 382.32-22.07L382.32-22.07Q380.07-22.07 377.92-19.92L377.92-19.92Q376.48-18.48 374.85-15.7L374.85-15.7 374.85 0 370.65 0 370.65-15.63Q370.65-18.92 370.48-21.31L370.48-21.31Q370.38-22.8 369.84-24.95ZM425.19 0L417.77 0 417.77-35.11 425.19-35.11Q428.19-35.11 430.77-34.8 433.35-34.5 435.49-33.74L435.49-33.74Q437.64-32.98 439.27-31.73 440.89-30.47 442.06-28.52L442.06-28.52Q443.21-26.56 443.8-23.88 444.38-21.19 444.38-17.55L444.38-17.55Q444.38-13.92 443.8-11.23 443.21-8.54 442.06-6.59L442.06-6.59Q440.89-4.64 439.27-3.38 437.64-2.12 435.49-1.37L435.49-1.37Q433.35-0.61 430.77-0.31 428.19 0 425.19 0L425.19 0ZM422.36-3.76L425.95-3.76Q429.68-3.76 432.28-4.5 434.88-5.25 436.54-6.93L436.54-6.93Q438.18-8.62 438.92-11.22 439.67-13.82 439.67-17.55L439.67-17.55Q439.67-21.29 438.92-23.89 438.18-26.49 436.54-28.17L436.54-28.17Q434.88-29.86 432.28-30.6 429.68-31.35 425.95-31.35L425.95-31.35 422.36-31.35 422.36-3.76ZM457.68-19.51L457.9-19.51Q458.65-21.02 459.52-22.24 460.39-23.46 461.44-24.32L461.44-24.32Q462.39-25.15 463.54-25.55 464.68-25.95 466.15-25.95L466.15-25.95Q466.64-25.95 467.28-25.9 467.93-25.85 468.52-25.73L468.52-25.73Q468.42-24.51 468.28-23.44 468.15-22.36 467.93-21.26L467.93-21.26Q466.71-21.48 465.7-21.58 464.68-21.68 463.78-21.53L463.78-21.53Q462.71-21.34 461.91-20.81 461.12-20.29 460.45-19.42 459.78-18.55 459.14-17.35 458.51-16.14 457.75-14.58L457.75-14.58 457.75 0 453.55 0 453.55-15.65Q453.55-17.19 453.51-18.36 453.48-19.53 453.37-20.59 453.26-21.66 453.04-22.69 452.82-23.73 452.45-25L452.45-25Q453.48-25.27 454.47-25.49 455.46-25.71 456.48-25.9L456.48-25.9Q456.82-24.93 457.03-24.17 457.24-23.41 457.36-22.69 457.48-21.97 457.54-21.23 457.6-20.48 457.68-19.51L457.68-19.51ZM493.75-4.71L494.97-1.42Q492.26-0.34 489.88 0.12 487.5 0.59 485.62 0.59L485.62 0.59Q482.74 0.59 480.59-0.33 478.44-1.25 477.02-2.91 475.59-4.57 474.87-6.87 474.15-9.18 474.15-11.96L474.15-11.96Q474.15-13.67 474.39-15.38 474.63-17.09 475.17-18.64 475.71-20.19 476.58-21.53 477.44-22.88 478.69-23.85 479.93-24.83 481.59-25.39 483.25-25.95 485.38-25.95L485.38-25.95Q490.82-25.95 493.58-22.55 496.34-19.14 496.34-12.79L496.34-12.79 496.34-11.45 478.47-11.45Q478.47-9.4 478.91-7.82 479.35-6.25 480.26-5.16 481.18-4.08 482.58-3.52 483.99-2.95 485.91-2.95L485.91-2.95Q486.99-2.95 488.05-3.11 489.11-3.27 490.11-3.53 491.11-3.78 492.03-4.1 492.95-4.42 493.75-4.71L493.75-4.71ZM478.59-14.82L492.12-14.82Q491.92-18.77 490.22-20.59 488.53-22.41 485.38-22.41L485.38-22.41Q482.23-22.41 480.58-20.59 478.93-18.77 478.59-14.82L478.59-14.82ZM506.68-20.9L506.68-20.9 505.61-24.32Q509.71-25.95 514.2-25.95L514.2-25.95Q518.13-25.95 520.21-24.63L520.21-24.63Q522.57-23.12 522.57-19.48L522.57-19.48 522.57-9.5Q522.57-7.5 522.62-5.4L522.62-5.4Q522.65-4.15 522.87-2.81L522.87-2.81Q523.06-1.54 523.38-0.39L523.38-0.39 519.38 0.49Q518.81-1.15 518.67-3.17L518.67-3.17 518.18-3.22Q515.15 0.59 510.46 0.59L510.46 0.59Q507.05 0.59 504.97-1.31 502.9-3.2 502.9-6.64L502.9-6.64Q502.9-9.2 504.03-10.84 505.17-12.48 507.24-13.6L507.24-13.6Q510.51-15.38 516.4-15.38L516.4-15.38Q517.18-15.38 518.5-15.33L518.5-15.33 518.5-19.04Q518.5-20.8 517.42-21.58 516.35-22.36 514.05-22.36L514.05-22.36Q510.71-22.36 506.68-20.9ZM518.5-7.13L518.5-7.13 518.5-12.26Q517.84-12.3 516.57-12.3L516.57-12.3Q514.42-12.3 512.61-11.94L512.61-11.94Q509.93-11.4 508.45-10.24 506.97-9.08 506.97-6.91L506.97-6.91Q506.97-3 511.22-3L511.22-3Q513.42-3 515.32-4.17L515.32-4.17Q516.89-5.15 518.5-7.13ZM537.11 0L532.92 0 532.92-15.7Q532.92-19.46 532.74-21.36L532.74-21.36Q532.65-22.85 532.11-25L532.11-25 536.11-25.9Q536.58-24.44 536.77-23.07L536.77-23.07Q536.87-22.56 537.02-20.41L537.02-20.41 537.53-20.41Q538.77-22.9 540.65-24.32L540.65-24.32Q542.68-25.95 545.27-25.95L545.27-25.95Q546.73-25.95 548.1-25.43 549.47-24.9 550.4-23.95L550.4-23.95Q551.79-22.58 552.37-19.9L552.37-19.9 552.67-19.9Q554.13-22.73 556.11-24.24L556.11-24.24Q558.23-25.95 560.87-25.95L560.87-25.95Q564.07-25.95 565.78-24.17L565.78-24.17Q567.27-22.68 567.88-19.63L567.88-19.63Q568.32-17.41 568.32-13.43L568.32-13.43 568.32 0 564.12 0 564.12-14.6Q564.12-16.53 563.9-17.77L563.9-17.77Q563.56-19.7 562.68-20.78L562.68-20.78Q561.58-22.07 559.6-22.07L559.6-22.07Q557.35-22.07 555.45-19.92L555.45-19.92Q554.3-18.63 552.72-15.92L552.72-15.92Q552.76-15.5 552.76-14.7L552.76-14.7 552.76 0 548.56 0 548.56-14.6Q548.56-17.7 547.95-19.36L547.95-19.36Q546.93-22.07 544.07-22.07L544.07-22.07Q541.88-22.07 539.9-19.87L539.9-19.87Q538.75-18.6 537.11-15.65L537.11-15.65 537.11 0ZM585.27-25.95L585.27-25.95Q587.28-25.95 589.29-25.54 591.3-25.12 593.04-24.39L593.04-24.39Q592.7-23.61 592.33-22.85 591.96-22.09 591.52-21.36L591.52-21.36Q590.91-21.61 590.17-21.85 589.42-22.09 588.61-22.27 587.79-22.44 586.92-22.55 586.05-22.66 585.22-22.66L585.22-22.66Q584.32-22.66 583.48-22.47 582.64-22.29 581.99-21.88 581.34-21.46 580.95-20.79 580.56-20.12 580.56-19.12L580.56-19.12Q580.56-18.09 581-17.4 581.44-16.7 582.2-16.24 582.95-15.77 583.97-15.45 584.98-15.14 586.13-14.87L586.13-14.87Q587.91-14.43 589.45-13.88 590.99-13.33 592.11-12.45 593.23-11.57 593.87-10.28 594.5-8.98 594.5-7.08L594.5-7.08Q594.5-5.08 593.71-3.64 592.92-2.2 591.56-1.26 590.21-0.32 588.4 0.13 586.59 0.59 584.54 0.59L584.54 0.59Q583.47 0.59 582.33 0.45 581.2 0.32 580.09 0.06 578.97-0.2 577.9-0.56 576.83-0.93 575.87-1.37L575.87-1.37Q576.22-2.15 576.59-2.89 576.97-3.64 577.39-4.37L577.39-4.37Q578.19-4.03 579.1-3.72 580-3.42 580.95-3.2 581.9-2.98 582.83-2.84 583.76-2.71 584.61-2.71L584.61-2.71Q585.69-2.71 586.7-2.95 587.72-3.2 588.51-3.72 589.3-4.25 589.78-5.08 590.25-5.91 590.25-7.08L590.25-7.08Q590.25-8.18 589.8-8.89 589.35-9.59 588.59-10.07 587.84-10.55 586.82-10.85 585.81-11.16 584.69-11.43L584.69-11.43Q582.98-11.84 581.45-12.38 579.93-12.92 578.79-13.78 577.66-14.65 576.99-15.93 576.31-17.21 576.31-19.12L576.31-19.12Q576.31-20.9 577.05-22.19 577.78-23.49 579.01-24.32 580.24-25.15 581.87-25.55 583.49-25.95 585.27-25.95Z" opacity="1" transform="matrix(1,0,0,1,0,0)" fill="#87c0cd" class="slogan-text-1" data-fill-palette-color="secondary" id="text-1"></path></svg></g></svg></g></svg></g></svg></g></svg></g></svg></g></svg></g><path d="M206.14 95.149L206.14 29.972 393.395 29.972 393.395 217.228 206.14 217.228 206.14 152.051 208.324 152.051 208.324 215.044 391.211 215.044 391.211 32.156 208.324 32.156 208.324 95.149Z" fill="#113f67" stroke="transparent" data-fill-palette-color="tertiary"></path></svg></g><defs></defs></svg><rect width="395.52" height="247.2" fill="none" stroke="none" visibility="hidden"></rect></g></svg></g></svg>